<svg xmlns:dc="http://purl.org/dc/elements/1.1/" xmlns:cc="http://creativecommons.org/ns#" xmlns:rdf="http://www.w3.org/1999/02/22-rdf-syntax-ns#" xmlns:svg="http://www.w3.org/2000/svg" xmlns="http://www.w3.org/2000/svg" xmlns:sodipodi="http://sodipodi.sourceforge.net/DTD/sodipodi-0.dtd" xmlns:inkscape="http://www.inkscape.org/namespaces/inkscape" version="1.1" x="0px" y="0px" viewBox="0 0 100 100"><g transform="translate(0,-952.36218)"><path style="text-indent:0;text-transform:none;direction:ltr;block-progression:tb;baseline-shift:baseline;color:#000000;enable-background:accumulate;" d="m 14.53125,958.19029 a 2.9408947,2.9408947 0 0 0 -2.9375,2.9375 l 0,72.46881 a 2.9408947,2.9408947 0 0 0 2.9375,2.9375 l 7.0625,0 0,7.0625 a 2.9408947,2.9408947 0 0 0 2.9375,2.9375 l 60.90625,0 a 2.9408947,2.9408947 0 0 0 2.96875,-2.9375 l 0,-72.4688 a 2.9408947,2.9408947 0 0 0 -2.96875,-2.9375 l -7.03125,0 0,-7.0625 a 2.9408947,2.9408947 0 0 0 -2.96875,-2.9375 l -9.90625,0 -0.1875,0 -0.40625,0 -50.40625,0 z m 2.9375,5.875 47.25,0 0.625,0 0.28125,0 6.875,0 0,7.03125 0,59.56256 -46.9375,0 a 2.9408947,2.9408947 0 0 0 -2.0625,0 l -6.03125,0 0,-66.5938 z m 27.25,8.9375 c -6.51065,0 -11.875,5.3331 -11.875,11.84375 0,6.51064 5.36435,11.875 11.875,11.875 6.51065,0 11.84375,-5.36436 11.84375,-11.875 0,-6.51065 -5.3331,-11.84375 -11.84375,-11.84375 z m 33.6875,1.0625 4.09375,0 0,66.59381 -55.03125,0 0,-4.125 47.96875,0 a 2.9408947,2.9408947 0 0 0 2.96875,-2.9375 l 0,-59.5313 z m -33.6875,4.8125 c 3.33221,0 5.96875,2.63654 5.96875,5.96875 0,3.3322 -2.63654,5.96875 -5.96875,5.96875 -3.33221,0 -5.96875,-2.63655 -5.96875,-5.96875 0,-3.33221 2.63654,-5.96875 5.96875,-5.96875 z M 45,1000.2216 c -10.22789,0 -18.59375,8.3657 -18.59375,18.5937 a 2.9408947,2.9408947 0 0 0 2.9375,2.9375 l 31.28125,0 a 2.9408947,2.9408947 0 0 0 2.9375,-2.9375 c 0,-10.228 -8.33462,-18.5937 -18.5625,-18.5937 z m 0,5.875 c 6.04231,0 11.03401,4.1557 12.34375,9.7812 l -24.71875,0 c 1.30974,-5.6255 6.33268,-9.7812 12.375,-9.7812 z" fill="#000000" fill-opacity="1" fill-rule="nonzero" stroke="none" marker="none" visibility="visible" display="inline" overflow="visible"></path></g></svg>