<?xml version="1.0" encoding="UTF-8"?>
<svg width="90px" height="90px" viewBox="0 0 90 90" version="1.1" xmlns="http://www.w3.org/2000/svg" xmlns:xlink="http://www.w3.org/1999/xlink">
    <!-- Generator: Sketch 51.2 (57519) - http://www.bohemiancoding.com/sketch -->
    <title>noun_Information_544649_000000</title>
    <desc>Created with Sketch.</desc>
    <defs></defs>
    <g id="Page-1" stroke="none" stroke-width="1" fill="none" fill-rule="evenodd">
        <g id="noun_Information_544649_000000" fill="#000000" fill-rule="nonzero">
            <path d="M45,8 C65.3974359,8 82,24.6025641 82,45 C82,65.3974359 65.3974359,82 45,82 C24.6025641,82 8,65.3974359 8,45 C8,24.6025641 24.6025641,8 45,8 Z M45,0 C20.1,0 0,20.1 0,45 C0,69.9 20.1,90 45,90 C69.9,90 90,69.9 90,45 C90,20.1 69.9,0 45,0 Z M50.0584416,67.5616883 L50.0584416,39.1383117 C50.0584416,37.1899351 47.8791126,35.7 45.0292208,35.7 C42.179329,35.7 40,37.1899351 40,39.1383117 L40,67.5616883 C40,69.5100649 42.179329,71 45.0292208,71 C47.8791126,71 50.0584416,69.3954545 50.0584416,67.5616883 Z M45,19.1 C42.195,19.1 39.9,21.395 39.9,24.2 C39.9,27.005 42.195,29.3 45,29.3 C47.805,29.3 50.1,27.005 50.1,24.2 C50.1,21.395 47.805,19.1 45,19.1 Z" id="Shape"></path>
        </g>
    </g>
</svg>