<?xml version="1.0" encoding="UTF-8"?>
<svg width="34px" height="28px" viewBox="0 0 34 28" version="1.1" xmlns="http://www.w3.org/2000/svg" xmlns:xlink="http://www.w3.org/1999/xlink">
    <!-- Generator: Sketch 51.2 (57519) - http://www.bohemiancoding.com/sketch -->
    <title>Twitter</title>
    <desc>Created with Sketch.</desc>
    <defs></defs>
    <g id="Welcome" stroke="none" stroke-width="1" fill="none" fill-rule="evenodd">
        <g id="Desktop-HD-Copy" transform="translate(-1202.000000, -2848.000000)" fill="#FFFFFF">
            <g id="Group-5" transform="translate(1154.000000, 2846.000000)">
                <path d="M76.6294289,4.23023934 C75.3603183,2.85764634 73.546525,2 71.5384615,2 C67.6893707,2 64.5656156,5.16503797 64.5656156,9.06840537 C64.5656156,9.62282529 64.6255307,10.1601999 64.7453609,10.6778379 C58.9481216,10.3826856 53.8090407,7.57200987 50.3666462,3.29005799 C49.7656797,4.33789369 49.4225296,5.55349076 49.4225296,6.84803435 C49.4225296,9.29896511 50.6535124,11.4628176 52.526313,12.7304476 C51.384295,12.6963571 50.3067311,12.3751882 49.3644301,11.8494761 L49.3644301,11.9355996 C49.3644301,15.3616994 51.7692041,18.2199225 54.9628601,18.8667457 C54.3782341,19.0327128 53.760927,19.1161449 53.1245561,19.1161449 C52.6751929,19.1161449 52.2367234,19.0730832 51.8118709,18.9905482 C52.6997036,21.7976354 55.274237,23.842171 58.3271834,23.8968953 C55.9405655,25.7934062 52.9311938,26.9237769 49.6640056,26.9237769 C49.1011668,26.9237769 48.5446827,26.8914806 48,26.826888 C51.0865351,28.8292589 54.7549729,30 58.6930286,30 C71.5248445,30 78.5394494,19.2309763 78.5394494,9.88926981 C78.5394494,9.58155778 78.5340026,9.27474288 78.5222012,8.97331069 C79.8848156,7.97661081 81.0685926,6.73230592 82,5.31485694 C80.7508611,5.87645381 79.4054949,6.25683253 77.9947668,6.42728525 C79.4354524,5.55349076 80.5411583,4.16833809 81.062238,2.51763801 C79.7132406,3.3268399 78.2226257,3.91535036 76.6294289,4.23023934 Z" id="Twitter"></path>
            </g>
        </g>
    </g>
</svg>