<?xml version="1.0" encoding="UTF-8"?>
<svg width="29px" height="30px" viewBox="0 0 29 30" version="1.1" xmlns="http://www.w3.org/2000/svg" xmlns:xlink="http://www.w3.org/1999/xlink">
    <!-- Generator: Sketch 51.2 (57519) - http://www.bohemiancoding.com/sketch -->
    <title>Fill 88</title>
    <desc>Created with Sketch.</desc>
    <defs></defs>
    <g id="Welcome" stroke="none" stroke-width="1" fill="none" fill-rule="evenodd">
        <g id="Desktop-HD-Copy" transform="translate(-1154.000000, -2846.000000)" fill="#FFFFFF">
            <g id="Group-5" transform="translate(1154.000000, 2846.000000)">
                <path d="M0.731092437,9.62010973 L6.38330171,9.62010973 L6.38330171,30 L0.731092437,30 L0.731092437,9.62010973 Z M21.8266468,9.42420086 C25.8437246,9.42420086 29,12.3556775 29,18.6685949 L29,30 L22.5907563,30 L22.5907563,19.4540196 C22.5907563,16.6934041 21.5884522,14.8094585 19.383383,14.8094585 C17.6971537,14.8094585 16.7593115,16.0806298 16.3230144,17.3061784 C16.1595012,17.7463025 16.1846571,18.3590768 16.1846571,18.9718511 L16.1846571,30 L9.83515858,30 C9.83515858,30 9.91691515,11.3188812 9.83515858,9.62010973 L16.1846571,9.62010973 L16.1846571,12.8190601 C16.5596368,11.4199666 18.5886148,9.42420086 21.8266468,9.42420086 Z M3.45264299,0 C5.53822174,0 6.82038493,1.52164838 6.86126321,3.53262166 C6.86126321,5.5078125 5.53822174,7.07150525 3.41333695,7.07150525 L3.37245866,7.07150525 C1.32697208,7.07150525 0,5.51317987 0,3.53798903 C0,1.52522662 1.365492,0 3.45264299,0 Z" id="Fill-88"></path>
            </g>
        </g>
    </g>
</svg>