<?xml version="1.0" encoding="UTF-8"?>
<svg width="16px" height="16px" viewBox="0 0 16 16" version="1.1" xmlns="http://www.w3.org/2000/svg" xmlns:xlink="http://www.w3.org/1999/xlink">
    <!-- Generator: Sketch 51.2 (57519) - http://www.bohemiancoding.com/sketch -->
    <title>noun_Download_539066_000000</title>
    <desc>Created with Sketch.</desc>
    <defs></defs>
    <g id="Page-1" stroke="none" stroke-width="1" fill="none" fill-rule="evenodd">
        <g id="noun_Download_539066_000000" fill="#54585A" fill-rule="nonzero">
            <path d="M16,16 L0,16 L0,10 L2,10 L2,14 L14,14 L14,10 L16,10 L16,16 Z M8,12 C7.744,12 7.488,11.902 7.293,11.707 L3.293,7.707 C2.902,7.316 2.902,6.684 3.293,6.293 C3.684,5.902 4.316,5.902 4.707,6.293 L8,9.586 L11.293,6.293 C11.684,5.902 12.316,5.902 12.707,6.293 C13.098,6.684 13.098,7.316 12.707,7.707 L8.707,11.707 C8.512,11.902 8.256,12 8,12 Z M8,12 C7.448,12 7,11.553 7,11 L7,1 C7,0.448 7.448,0 8,0 C8.552,0 9,0.448 9,1 L9,11 C9,11.553 8.552,12 8,12 Z" id="Shape"></path>
        </g>
    </g>
</svg>