<?xml version="1.0" encoding="UTF-8"?>
<svg width="81px" height="62px" viewBox="0 0 81 62" version="1.1" xmlns="http://www.w3.org/2000/svg" xmlns:xlink="http://www.w3.org/1999/xlink">
    <!-- Generator: Sketch 51.2 (57519) - http://www.bohemiancoding.com/sketch -->
    <title>noun_Folder_1593989_000000</title>
    <desc>Created with Sketch.</desc>
    <defs></defs>
    <g id="Page-1" stroke="none" stroke-width="1" fill="none" fill-rule="evenodd">
        <g id="noun_Folder_1593989_000000" fill="#54585A" fill-rule="nonzero">
            <path d="M4,0 L18.5518003,0 C19.4875463,0 20.3936779,0.3280649 21.1125379,0.9271149 L25.7218655,4.7682213 C25.9015805,4.9179838 26.1281134,5 26.3620499,5 L68,5 C70.209139,5 72,6.790861 72,9 L72,18 C72,18.5522847 72.4477153,19 73,19 L77,19 C79.1929224,19 80.9706372,20.7777148 80.9706372,22.9706372 C80.9706372,23.2733924 80.9360107,23.5751542 80.8674325,23.8700401 L72.7195223,58.906054 C72.2981881,60.7177912 70.6835747,62 68.8234902,62 L4,62 C1.790861,62 0,60.209139 0,58 L0,4 C0,1.790861 1.790861,0 4,0 Z M68,18 L68,10 C68,9.4477153 67.5522847,9 67,9 L26,9 C25.064254,9 24.1581224,8.6719351 23.4392624,8.0728851 L18.8299347,4.2317787 C18.6502197,4.0820162 18.4236868,4 18.1897503,4 L5,4 L5,4.0000622 C4.4477396,4.0000622 4.0000344,4.4477396 4,5 L3.9973423,46.710665 C3.997332,46.8763504 4.1316382,47.0106733 4.2973236,47.0106837 C4.4370274,47.0106924 4.5582459,46.9142676 4.5896597,46.7781415 L10.2844857,22.100562 C10.7033144,20.2856376 12.3194266,19 14.1820505,19 L67,19 C67.5522847,19 68,18.5522847 68,18 Z M7.2570511,58 L68.0293628,58 C68.4943839,58 68.8980372,57.6794478 69.0033708,57.2265135 L76.6778084,24.2264319 C76.8029083,23.6885022 76.4682436,23.1510104 75.9303138,23.0259104 C75.8560683,23.008644 75.780092,22.9999234 75.7038651,22.9999184 L15.668994,22.9960301 C14.7376336,22.9959698 13.9295073,23.6388017 13.7200821,24.5463111 L6.2826599,56.7751405 C6.1584734,57.3132819 6.4940502,57.8502047 7.0321916,57.9743912 C7.1059342,57.9914087 7.1813703,58 7.2570511,58 Z" id="Shape"></path>
        </g>
    </g>
</svg>