<?xml version="1.0" encoding="UTF-8"?>
<svg width="40px" height="40px" viewBox="0 0 40 40" version="1.1" xmlns="http://www.w3.org/2000/svg" xmlns:xlink="http://www.w3.org/1999/xlink">
    <!-- Generator: Sketch 51.2 (57519) - http://www.bohemiancoding.com/sketch -->
    <title>Group 3</title>
    <desc>Created with Sketch.</desc>
    <defs>
        <polygon id="path-1" points="0 0 40 0 40 40 0 40"></polygon>
    </defs>
    <g id="Page-1" stroke="none" stroke-width="1" fill="none" fill-rule="evenodd">
        <g id="Artboard" transform="translate(-3112.000000, -1921.000000)">
            <g id="Group-3" transform="translate(3112.000000, 1921.000000)">
                <mask id="mask-2" fill="white">
                    <use xlink:href="#path-1"></use>
                </mask>
                <g id="Clip-2"></g>
                <path d="M34.0845266,34.0852778 L28.1557201,34.0852778 L28.1557201,24.8022222 C28.1557201,22.5875 28.1151651,19.7402778 25.0729851,19.7402778 C21.985528,19.7402778 21.5127568,22.1519444 21.5127568,24.6419444 L21.5127568,34.0852778 L15.584228,34.0852778 L15.584228,14.9961111 L21.2755378,14.9961111 L21.2755378,17.6041667 L21.3544256,17.6041667 C22.1460813,16.1036111 24.0813322,14.5211111 26.967681,14.5211111 C32.9753753,14.5211111 34.0845266,18.4747222 34.0845266,23.6144444 L34.0845266,34.0852778 Z M8.89820975,12.3866667 C6.99656949,12.3866667 5.4574242,10.8447222 5.4574242,8.94583333 C5.4574242,7.04833333 6.99656949,5.50694444 8.89820975,5.50694444 C10.7948501,5.50694444 12.3362176,7.04833333 12.3362176,8.94583333 C12.3362176,10.8447222 10.7948501,12.3866667 8.89820975,12.3866667 Z M5.93047319,34.0852778 L11.8634463,34.0852778 L11.8634463,14.9961111 L5.93047319,14.9961111 L5.93047319,34.0852778 Z M37.0392078,0 L2.95245899,0 C1.32359273,0 0,1.29111111 0,2.88305556 L0,37.1136111 C0,38.7069444 1.32359273,40 2.95245899,40 L37.0392078,40 C38.6708518,40 40,38.7069444 40,37.1136111 L40,2.88305556 C40,1.29111111 38.6708518,0 37.0392078,0 Z" id="Fill-1" fill="#707372" mask="url(#mask-2)"></path>
            </g>
        </g>
    </g>
</svg>