<?xml version="1.0" encoding="UTF-8"?>
<svg width="120px" height="104px" viewBox="0 0 120 104" version="1.1" xmlns="http://www.w3.org/2000/svg" xmlns:xlink="http://www.w3.org/1999/xlink">
    <!-- Generator: Sketch 51.2 (57519) - http://www.bohemiancoding.com/sketch -->
    <title>noun_Social Media_860569_000000 (1)</title>
    <desc>Created with Sketch.</desc>
    <defs></defs>
    <g id="Page-1" stroke="none" stroke-width="1" fill="none" fill-rule="evenodd">
        <g id="noun_Social-Media_860569_000000-(1)" fill="#54585A" fill-rule="nonzero">
            <path d="M117.3,57.3 C119,55.1 120,52.4 120,49.5 C120,45.4 117.7,41.6 114,39.6 C112.4,38.7 110.6,38.3 108.8,38.3 C108.8,38.3 108.8,38.3 108.8,38.3 L80.1,38.3 L80.4,36.6 C81.8,29.3 82.3,21.8 82,14.4 L82,13.8 C81.8,10.1 80.3,6.7 77.7,4 C75.3,1.5 71.8,0.4 68.6,1.2 C67.6,1.4 66.6,1.8 65.6,2.4 L61.5,4.8 L61.5,14.4 C61.5,18.5 60.7,22.6 59.1,26.4 C57.5,30.2 55.2,33.7 52.2,36.6 L44.9,43.8 L44.9,39.7 L0,39.7 L0,103.2 L44.9,103.2 L44.9,97 C48.9,98.4 53.1,99.1 57.3,99.1 L101.2,99.1 C106.9,99.1 111.5,94.5 111.5,88.8 L111.5,88.4 L112.5,87.6 C115.5,85.4 117.2,82 117.4,78.3 C117.5,76.6 117.2,74.9 116.6,73.3 L116.4,72.7 C118.7,70.6 120,67.6 120,64.4 C120,61.8 119.1,59.2 117.3,57.3 Z M39.9,98.1 L21.5,98.1 L21.5,44.6 L39.9,44.6 L39.9,98.1 Z M113.4,60.4 C114.4,61.5 115,62.9 115,64.5 C115,66.4 114.2,68.2 112.7,69.3 L110.4,71.1 L112,75.1 C112.4,76 112.5,77 112.5,78 C112.4,80.2 111.4,82.2 109.6,83.5 L106.6,85.8 L106.6,88.7 C106.6,91.6 104.2,94 101.3,94 L57.3,94 C53.1,94 48.8,93.2 44.9,91.6 L44.9,50.8 L55.7,40 C59.1,36.6 61.8,32.6 63.7,28.2 C65.5,23.8 66.5,19.1 66.5,14.3 L66.5,7.6 L68.1,6.6 C68.6,6.3 69.1,6.1 69.6,6 C71.1,5.6 72.9,6.2 74.1,7.5 C75.8,9.3 76.8,11.5 76.9,14 L76.9,14.6 C77.2,21.6 76.7,28.7 75.4,35.6 L74,43.3 L108.8,43.3 C109.8,43.3 110.8,43.6 111.8,44.1 C113.8,45.2 115.1,47.3 115.1,49.5 C115.1,51.6 114.3,53.6 112.8,55.1 L110.6,57.3 L113.4,60.4 Z" id="Shape"></path>
            <circle id="Oval" cx="31" cy="90" r="5"></circle>
        </g>
    </g>
</svg>