<?xml version="1.0" encoding="UTF-8"?>
<svg width="78px" height="90px" viewBox="0 0 78 90" version="1.1" xmlns="http://www.w3.org/2000/svg" xmlns:xlink="http://www.w3.org/1999/xlink">
    <!-- Generator: Sketch 51.2 (57519) - http://www.bohemiancoding.com/sketch -->
    <title>noun_contact_62042_000000</title>
    <desc>Created with Sketch.</desc>
    <defs></defs>
    <g id="Page-1" stroke="none" stroke-width="1" fill="none" fill-rule="evenodd">
        <g id="noun_contact_62042_000000" fill="#54585A" fill-rule="nonzero">
            <path d="M3.53125,0.82811 C1.90968905,0.829980704 0.595620704,2.14404905 0.59375,3.76561 L0.59375,76.23442 C0.595620704,77.8559809 1.90968905,79.1700493 3.53125,79.17192 L10.59375,79.17192 L10.59375,86.23442 C10.5956207,87.8559809 11.9096891,89.1700493 13.53125,89.17192 L74.4375,89.17192 C75.2217008,89.1793485 75.9763871,88.8732541 76.533852,88.3216573 C77.0913168,87.7700606 77.4053799,87.0186555 77.40625,86.23442 L77.40625,13.76562 C77.4053799,12.9813845 77.0913168,12.2299794 76.533852,11.6783827 C75.9763871,11.1267859 75.2217008,10.8206915 74.4375,10.82812 L67.40625,10.82812 L67.40625,3.76562 C67.4053799,2.98138451 67.0913168,2.22997944 66.533852,1.67838265 C65.9763871,1.12678587 65.2217008,0.820691462 64.4375,0.82812 L54.53125,0.82812 L54.34375,0.82812 L53.9375,0.82812 L3.53125,0.82812 L3.53125,0.82811 Z M6.46875,6.70311 L53.71875,6.70311 L54.34375,6.70311 L54.625,6.70311 L61.5,6.70311 L61.5,13.73436 L61.5,73.29692 L14.5625,73.29692 C13.8975427,73.0479374 13.1649573,73.0479374 12.5,73.29692 L6.46875,73.29692 L6.46875,6.70311 Z M33.71875,15.64061 C27.2081,15.64061 21.84375,20.97371 21.84375,27.48436 C21.84375,33.995 27.2081,39.35936 33.71875,39.35936 C40.2294,39.35936 45.5625,33.995 45.5625,27.48436 C45.5625,20.97371 40.2294,15.64061 33.71875,15.64061 Z M67.40625,16.70311 L71.5,16.70311 L71.5,83.29692 L16.46875,83.29692 L16.46875,79.17192 L64.4375,79.17192 C65.2217008,79.1793485 65.9763871,78.8732541 66.533852,78.3216573 C67.0913168,77.7700606 67.4053799,77.0186555 67.40625,76.23442 L67.40625,16.70312 L67.40625,16.70311 Z M33.71875,21.51561 C37.05096,21.51561 39.6875,24.15215 39.6875,27.48436 C39.6875,30.81656 37.05096,33.45311 33.71875,33.45311 C30.38654,33.45311 27.75,30.81656 27.75,27.48436 C27.75,24.15215 30.38654,21.51561 33.71875,21.51561 Z M34,42.85942 C23.77211,42.85942 15.40625,51.22512 15.40625,61.45312 C15.4081207,63.0746809 16.7221891,64.3887493 18.34375,64.39062 L49.625,64.39062 C51.2465609,64.3887493 52.5606293,63.0746809 52.5625,61.45312 C52.5625,51.22512 44.22788,42.85942 34,42.85942 Z M34,48.73442 C40.04231,48.73442 45.03401,52.89012 46.34375,58.51562 L21.625,58.51562 C22.93474,52.89012 27.95768,48.73442 34,48.73442 Z" id="Shape"></path>
        </g>
    </g>
</svg>