<?xml version="1.0" encoding="UTF-8"?>
<svg width="344px" height="136px" viewBox="0 0 344 136" version="1.1" xmlns="http://www.w3.org/2000/svg" xmlns:xlink="http://www.w3.org/1999/xlink">
    <!-- Generator: Sketch 51.2 (57519) - http://www.bohemiancoding.com/sketch -->
    <title>Group 26</title>
    <desc>Created with Sketch.</desc>
    <defs></defs>
    <g id="Welcome" stroke="none" stroke-width="1" fill="none" fill-rule="evenodd">
        <g id="Desktop-HD-Copy-13" transform="translate(-1046.000000, -905.000000)" fill="#00A0DF">
            <g id="Group-26" transform="translate(1046.000000, 905.000000)">
                <path d="M301,82.7898368 L300.977123,82.7898368 C300.94348,81.8804641 300.621855,81.0152552 299.959765,80.3514599 L255.695283,35.7319724 C254.757323,34.7911497 253.129012,34.7463168 251.840493,35.6610427 C223.771647,55.523376 177.43006,72.3477754 141.882423,80.7288596 C140.390029,81.0794934 139.429191,82.1969713 139.118332,83.3666428 C139.061812,83.5627033 139.027497,83.7527415 139.011348,83.948802 C138.91042,85.1224883 139.479656,86.2392971 140.842188,86.5926075 C173.127148,94.8960705 213.068532,111.488275 234.266177,131.11373 C235.582955,132.33158 237.775792,132.290093 239.488209,131.015365 L298.790342,86.9673306 C299.689277,86.3035353 300.316379,85.4383264 300.671646,84.5269462 L300.694524,84.5269462 C300.796125,84.2398815 300.864083,83.948802 300.91522,83.6577224 C300.966357,83.371996 301,83.078909 301,82.7898368" id="Fill-1" style="mix-blend-mode: multiply;"></path>
                <path d="M245,49.7896689 L244.977123,49.7896689 C244.94348,48.8802947 244.621855,48.0150844 243.959765,47.3512881 L199.695283,2.73173074 C198.757323,1.7915757 197.129012,1.74607354 195.840493,2.66080089 C167.771647,22.5231653 121.43006,39.347591 85.8824231,47.7286884 C84.3900292,48.0793228 83.4291914,49.1968024 83.1176592,50.3664757 C83.0618122,50.5625365 83.0274965,50.752575 83.011348,50.9486358 C82.9104197,52.122324 83.4796555,53.2391345 84.8421882,53.5924454 C117.127148,61.8965906 157.068532,78.4881523 178.266177,98.114307 C179.582955,99.3314899 181.775792,99.2900026 183.488209,98.0152729 L242.790342,53.9671692 C243.689277,53.3033729 244.315706,52.4381626 244.671646,51.5267809 L244.694524,51.5267809 C244.796125,51.2397158 244.864083,50.9486358 244.91522,50.6575558 C244.966357,50.3718289 245,50.0787414 245,49.7896689" id="Fill-3" style="mix-blend-mode: multiply;"></path>
                <path d="M166,89.0386716 L165.98587,89.0386716 C165.963666,88.4476718 165.757099,87.8857821 165.332527,87.4545486 L136.914479,58.4759297 C136.312946,57.8639437 135.268002,57.8355107 134.441063,58.4292184 C116.420649,71.330343 86.6710198,82.2560527 63.8497828,87.7002907 C62.8923096,87.9277545 62.275974,88.6541494 62.076136,89.414393 C62.0398018,89.5409875 62.0182704,89.664197 62.0075047,89.7914685 C61.9415649,90.553066 62.3082711,91.2794609 63.1823103,91.5082787 C83.9082755,96.9017435 109.550122,107.677165 123.158623,120.423939 C124.003729,121.215323 125.412016,121.188244 126.510789,120.361657 L164.580948,91.7526669 C165.158931,91.3207564 165.560625,90.7588666 165.789396,90.166513 L165.804199,90.166513 C165.869466,89.9810216 165.912529,89.7914685 165.945499,89.6019153 C165.978469,89.4171009 166,89.2261938 166,89.0386716" id="Fill-5" style="mix-blend-mode: multiply;"></path>
                <path d="M153,11.8244151 L152.993944,11.8244151 C152.98587,11.5992246 152.908492,11.3853267 152.749698,11.2212498 L142.093033,0.180933491 C141.866954,-0.0515641461 141.476025,-0.0628568885 141.164494,0.163662238 C134.407691,5.077998 123.251768,9.24036997 114.693062,11.3142489 C114.33443,11.4012694 114.102969,11.6776095 114.027609,11.9672351 C114.015497,12.0157275 114.00675,12.0628913 114.002713,12.1113836 C113.978491,12.4016736 114.115753,12.6780136 114.44276,12.7650341 C122.215572,14.819649 131.83066,18.924893 136.934259,23.7814365 C137.251173,24.0816905 137.779364,24.0717264 138.191151,23.7568581 L152.468445,12.8580332 C152.683759,12.6939563 152.835151,12.4793942 152.921276,12.2535393 L152.926659,12.2535393 C152.950882,12.1831258 152.966357,12.1113836 152.979142,12.0389772 C152.99058,11.9685637 153,11.8961573 153,11.8244151" id="Fill-7" style="mix-blend-mode: multiply;"></path>
                <path d="M248,107.082737 L247.987164,107.082737 C247.968248,106.548238 247.784494,106.039927 247.408878,105.649797 L222.271003,79.4297997 C221.73798,78.8771707 220.814479,78.8509829 220.082164,79.3888394 C204.141468,91.0598537 177.824051,100.946071 157.636061,105.872057 C156.788899,106.07753 156.24304,106.734239 156.066717,107.421835 C156.034966,107.536659 156.015374,107.648796 156.006592,107.764291 C155.948493,108.453231 156.272765,109.109939 157.04629,109.316755 C175.380523,114.196409 198.063385,123.946316 210.102002,135.479005 C210.84918,136.194804 212.094927,136.17063 213.067069,135.421257 L246.744795,109.537001 C247.254849,109.147542 247.611549,108.639231 247.813543,108.103389 L247.827055,108.103389 C247.884478,107.935519 247.922985,107.764291 247.951359,107.593063 C247.981084,107.425193 248,107.251951 248,107.082737" id="Fill-9" style="mix-blend-mode: multiply;"></path>
                <path d="M344,72.0387489 L343.98587,72.0387489 C343.962993,71.4477492 343.7571,70.8858594 343.331858,70.4546259 L314.914628,41.4753297 C314.313098,40.8640207 313.267486,40.8355877 312.441224,41.4292954 C294.420903,54.3297432 264.671426,65.25613 241.850305,70.7003681 C240.892837,70.9278319 240.276504,71.6535498 240.075995,72.4137934 C240.040333,72.5410649 240.018802,72.6642744 240.007364,72.7915458 C239.942097,73.5531434 240.308801,74.2788613 241.182836,74.5083561 C261.908695,79.901821 287.550411,90.6772423 301.158842,103.424017 C302.003944,104.215401 303.411551,104.188322 304.510991,103.361058 L342.580955,74.7520673 C343.158935,74.3208338 343.560628,73.758944 343.789397,73.1665904 L343.8042,73.1665904 C343.869467,72.980422 343.912529,72.7915458 343.945499,72.6019927 C343.978469,72.4165013 344,72.2262712 344,72.0387489" id="Fill-11" style="mix-blend-mode: multiply;"></path>
                <path d="M127,34.0387489 L126.98587,34.0387489 C126.962993,33.4477492 126.7571,32.8858594 126.332531,32.4546259 L97.9146279,3.4753297 C97.3130982,2.86402069 96.2681591,2.83558772 95.441224,3.42929535 C77.4209026,16.3297432 47.6714255,27.25613 24.8503052,32.7003681 C23.8928369,32.9278319 23.2765045,33.6535498 23.0766674,34.4137934 C23.0403334,34.5410649 23.0188022,34.6642744 23.0073637,34.7915458 C22.9420971,35.5531434 23.3088014,36.2788613 24.1828361,36.5083561 C44.9093682,41.901821 70.5504111,52.6772423 84.1588422,65.4240166 C85.0039443,66.2154011 86.4122234,66.1883221 87.5109907,65.3610579 L125.581628,36.7520673 C126.158935,36.3208338 126.560628,35.758944 126.789397,35.1665904 L126.8042,35.1665904 C126.869467,34.980422 126.912529,34.7915458 126.945499,34.6019927 C126.978469,34.4165013 127,34.2262712 127,34.0387489" id="Fill-13" style="mix-blend-mode: multiply;"></path>
                <path d="M104,76.0393485 L103.98587,76.0393485 C103.962993,75.4483488 103.757099,74.886459 103.332527,74.4545486 L74.9144791,45.4759297 C74.3129464,44.8639437 73.2680019,44.8355107 72.4410626,45.4292184 C54.420649,58.330343 24.6710198,69.2560527 1.84978283,74.7002907 C0.892309582,74.9277545 0.275974025,75.6541494 0.0761359673,76.414393 C0.0398017751,76.5409875 0.0182704019,76.664874 0.00750471532,76.7914685 C-0.058435115,77.553066 0.308271084,78.2794609 1.18231026,78.5082787 C21.9082755,83.9017435 47.5501224,94.6771647 61.1586231,107.423939 C62.0037295,108.215323 63.4120159,108.188244 64.5107887,107.361657 L102.581621,78.7526669 C103.158931,78.3214334 103.560625,77.7595436 103.789396,77.1671899 L103.804199,77.1671899 C103.869466,76.9810216 103.912529,76.7914685 103.945499,76.6025923 C103.978469,76.4171009 104,76.2261938 104,76.0393485" id="Fill-15" style="mix-blend-mode: multiply;"></path>
            </g>
        </g>
    </g>
</svg>