<?xml version="1.0" encoding="UTF-8"?>
<svg width="157px" height="41px" viewBox="0 0 157 41" version="1.1" xmlns="http://www.w3.org/2000/svg" xmlns:xlink="http://www.w3.org/1999/xlink">
    <!-- Generator: Sketch 51.2 (57519) - http://www.bohemiancoding.com/sketch -->
    <title>yt_logo_mono_dark</title>
    <desc>Created with Sketch.</desc>
    <defs>
        <polygon id="path-1" points="0.0249251761 0.450649272 50.4672503 0.450649272 50.4672503 40.328655 0.0249251761 40.328655"></polygon>
    </defs>
    <g id="Welcome" stroke="none" stroke-width="1" fill="none" fill-rule="evenodd">
        <g id="Desktop-HD-Copy-8" transform="translate(-49.000000, -2015.000000)">
            <g id="Group-4" transform="translate(-274.000000, 1776.000000)">
                <g id="yt_logo_mono_dark" transform="translate(323.000000, 239.000000)">
                    <g id="Group-3">
                        <mask id="mask-2" fill="white">
                            <use xlink:href="#path-1"></use>
                        </mask>
                        <g id="Clip-2"></g>
                        <path d="M20.1869001,28.9348721 L20.1869001,11.8439632 L33.2979582,20.3898866 L20.1869001,28.9348721 Z M49.4124999,6.67720602 C48.8321587,4.22653683 47.1222917,2.29591971 44.9508934,1.64081353 C41.0152081,0.450649272 25.2334174,0.450649272 25.2334174,0.450649272 C25.2334174,0.450649272 9.4520422,0.450649272 5.51635689,1.64081353 C3.34495863,2.29591971 1.63509155,4.22653683 1.05475037,6.67720602 C0,11.1203921 0,20.3894177 0,20.3894177 C0,20.3894177 0,29.6589121 1.05475037,34.1016293 C1.63509155,36.5522985 3.34495863,38.4833845 5.51635689,39.1380218 C9.4520422,40.328655 25.2334174,40.328655 25.2334174,40.328655 C25.2334174,40.328655 41.0152081,40.328655 44.9508934,39.1380218 C47.1222917,38.4833845 48.8321587,36.5522985 49.4124999,34.1016293 C50.4672503,29.6589121 50.4672503,20.3894177 50.4672503,20.3894177 C50.4672503,20.3894177 50.4672503,11.1203921 49.4124999,6.67720602 Z" id="Fill-1" fill="#FFFFFE" mask="url(#mask-2)"></path>
                    </g>
                    <path d="M78.4841198,32.9227255 C78.7646598,32.104084 78.9055626,30.7665452 78.9055626,28.9105806 L78.9055626,21.0898907 C78.9055626,19.2881251 78.7646598,17.9713234 78.4841198,17.138543 C78.203158,16.3062338 77.7083107,15.8896079 77,15.8896079 C76.3157356,15.8896079 75.8327005,16.3062338 75.5521605,17.138543 C75.2711987,17.9713234 75.1307178,19.2881251 75.1307178,21.0898907 L75.1307178,28.9105806 C75.1307178,30.7665452 75.2648707,32.104084 75.5340204,32.9227255 C75.8023263,33.7418384 76.2908455,34.1509236 77,34.1509236 C77.7083107,34.1509236 78.203158,33.7418384 78.4841198,32.9227255 Z M72.8037124,36.8533362 C71.7891279,36.0898363 71.0681613,34.9021698 70.6412343,33.2912792 C70.2134635,31.6813312 70,29.5383472 70,26.8632697 L70,23.2192071 C70,20.5167945 70.2438378,18.3464752 70.7327789,16.7087208 C71.2212981,15.0709663 71.9844513,13.8771729 73.0235039,13.126398 C74.0617128,12.3756231 75.4239137,12 77.1101067,12 C78.7714096,12 80.1028144,12.3826926 81.104743,13.1466638 C82.1062496,13.9111063 82.8394504,15.105371 83.3039233,16.7294578 C83.7675526,18.3535447 84,20.5167945 84,23.2192071 L84,26.8632697 C84,29.5383472 83.7738806,31.6879294 83.3220635,33.3120162 C82.8698246,34.9361031 82.1366239,36.1237696 81.1228831,36.873602 C80.1087205,37.6243769 78.7347074,38 77,38 C75.2159344,38 73.8170313,37.6173074 72.8037124,36.8533362 Z" id="Fill-4" fill="#FFFFFE"></path>
                    <path d="M149.416599,16.3470225 C149.168438,16.7024691 149.002044,17.2835512 148.91946,18.0897967 C148.836059,18.8965142 148.795585,20.1195715 148.795585,21.7599129 L148.795585,23.5645243 L152.382257,23.5645243 L152.382257,21.7599129 C152.382257,20.1474219 152.334832,18.9238925 152.240392,18.0897967 C152.145544,17.2561728 151.974244,16.6684822 151.725675,16.3267248 C151.476697,15.9849673 151.091987,15.8136166 150.571137,15.8136166 C150.049877,15.8136166 149.665168,15.9920479 149.416599,16.3470225 Z M148.795585,26.927342 L148.795585,28.1990196 C148.795585,29.8119826 148.836059,31.0218228 148.91946,31.8280683 C149.002044,32.6347858 149.173344,33.2224764 149.434587,33.5916122 C149.695012,33.960748 150.096893,34.1453159 150.642273,34.1453159 C151.375715,34.1453159 151.879395,33.8172476 152.151676,33.1606391 C152.423549,32.5049746 152.571545,31.4112564 152.595258,29.8799564 L156.822159,30.1669572 C156.845871,30.3864561 156.857727,30.687146 156.857727,31.0694989 C156.857727,33.3933551 156.307441,35.1295207 155.206051,36.2779956 C154.105478,37.4255265 152.547833,38 150.535568,38 C148.120605,38 146.427228,37.1257807 145.456664,35.3754539 C144.485282,33.6265432 144,30.91939 144,27.2554103 L144,22.8673203 C144,19.0942992 144.503271,16.3404139 145.509812,14.6037763 C146.515944,12.8680828 148.238757,12 150.677841,12 C152.358545,12 153.649223,12.3554466 154.54906,13.0658678 C155.448487,13.7772331 156.082175,14.8846405 156.449305,16.3880901 C156.816435,17.8920116 157,19.9699346 157,22.6213871 L157,26.927342 L148.795585,26.927342 Z" id="Fill-5" fill="#FFFFFE"></path>
                    <path d="M61.557706,26.6528014 L56,3 L60.8495467,3 L62.7963736,13.7210668 C63.2922481,16.3634006 63.6577366,18.6158426 63.8936539,20.4788729 L64.0354487,20.4788729 C64.2004686,19.1440213 64.5663645,16.905504 65.1327289,13.7628409 L67.1504533,3 L72,3 L66.371804,26.6528014 L66.371804,38 L61.557706,38 L61.557706,26.6528014" id="Fill-6" fill="#FFFFFE"></path>
                    <path d="M101,12 L101,37.5830316 L96.9570971,37.5830316 L96.5076942,34.452886 L96.3956666,34.452886 C95.2973655,36.8177888 93.6501293,38 91.4543888,38 C89.9321064,38 88.8092454,37.4442022 88.0853749,36.3306851 C87.3615044,35.2186091 87,33.479159 87,31.1142562 L87,12 L92.1657639,12 L92.1657639,30.7803932 C92.1657639,31.9217722 92.2782223,32.7350528 92.5027084,33.2216762 C92.7271944,33.7087798 93.101625,33.9518513 93.6255694,33.9518513 C94.0749723,33.9518513 94.5054167,33.7995714 94.9169026,33.4926096 C95.3288194,33.1870889 95.63431,32.7979824 95.8342361,32.3248097 L95.8342361,12 L101,12" id="Fill-7" fill="#FFFFFE"></path>
                    <path d="M125,12 L125,37.5830316 L120.957097,37.5830316 L120.507694,34.452886 L120.396098,34.452886 C119.296935,36.8177888 117.650129,38 115.454389,38 C113.932106,38 112.809245,37.4442022 112.085375,36.3306851 C111.361504,35.2186091 111,33.479159 111,31.1142562 L111,12 L116.165764,12 L116.165764,30.7803932 C116.165764,31.9217722 116.277791,32.7350528 116.502277,33.2216762 C116.727194,33.7087798 117.101625,33.9518513 117.625569,33.9518513 C118.074972,33.9518513 118.505417,33.7995714 118.916903,33.4926096 C119.328819,33.1870889 119.63431,32.7979824 119.834236,32.3248097 L119.834236,12 L125,12" id="Fill-8" fill="#FFFFFE"></path>
                    <polyline id="Fill-9" fill="#FFFFFE" points="113 7.63033338 107.975515 7.63033338 107.975515 38 103.024485 38 103.024485 7.63033338 98 7.63033338 98 3 113 3 113 7.63033338"></polyline>
                    <path d="M136.958848,26.7797289 C136.958848,28.6093105 136.891632,30.0428992 136.758872,31.0800236 C136.626111,32.1185622 136.402338,32.8553919 136.08797,33.2919269 C135.773603,33.7289334 135.349854,33.9472009 134.818811,33.9472009 C134.407169,33.9472009 134.026421,33.8383029 133.67615,33.6190925 C133.325043,33.400825 133.04157,33.0736594 132.823642,32.6361815 L132.823642,18.383736 C132.992724,17.7020625 133.282877,17.1420153 133.694102,16.7045374 C134.105326,16.2684738 134.552037,16.0497348 135.035904,16.0497348 C135.543985,16.0497348 135.936423,16.2750737 136.214886,16.7252799 C136.492515,17.1754862 136.686229,17.9335298 136.795193,18.9984679 C136.904157,20.0629346 136.958848,21.5785504 136.958848,23.5443724 L136.958848,26.7797289 Z M141.546609,16.5390689 C141.243932,14.9560401 140.75422,13.8095463 140.077474,13.0991161 C139.40031,12.3896288 138.469315,12.0346494 137.284905,12.0346494 C136.366017,12.0346494 135.507664,12.3283441 134.709847,12.9147908 C133.91203,13.5021803 133.294984,14.2734237 132.859963,15.2289923 L132.823224,15.2289923 L132.823642,2 L128,2 L128,37.6313494 L132.134371,37.6313494 L132.642452,35.2563347 L132.750999,35.2563347 C133.137592,36.1025339 133.717898,36.7714791 134.491919,37.2631703 C135.265522,37.7543901 136.124292,38 137.067394,38 C138.759468,38 140.004831,37.1193872 140.803066,35.3586329 C141.600883,33.5969358 142,30.8466706 142,27.1059517 L142,23.133294 C142,20.3212728 141.848452,18.1235121 141.546609,16.5390689 Z" id="Fill-10" fill="#FFFFFE"></path>
                </g>
            </g>
        </g>
    </g>
</svg>